<svg xmlns="http://www.w3.org/2000/svg" width="32" height="32" viewBox="0 0 32 32" fill="none">
  <rect width="32" height="32" rx="8" fill="url(#paint0_linear)" />
  <path d="M16.0851 23.6C15.0317 23.6 14.0917 23.3867 13.2651 22.96C12.4384 22.52 11.7784 21.9067 11.2851 21.12C10.8051 20.32 10.5651 19.4133 10.5651 18.4V14C10.5651 12.9867 10.8051 12.0867 11.2851 11.3C11.7784 10.5 12.4384 9.88667 13.2651 9.46C14.0917 9.02 15.0317 8.8 16.0851 8.8C17.1384 8.8 18.0784 9.02 18.9051 9.46C19.7317 9.88667 20.3851 10.5 20.8651 11.3C21.3451 12.0867 21.5851 12.9867 21.5851 14V18.4C21.5851 19.4133 21.3451 20.32 20.8651 21.12C20.3851 21.9067 19.7317 22.52 18.9051 22.96C18.0917 23.3867 17.1517 23.6 16.0851 23.6ZM16.0851 20.8C16.4651 20.8 16.8384 20.7333 17.2051 20.6C17.5717 20.4667 17.8851 20.2733 18.1451 20.02L19.0051 20.88C18.6384 21.2467 18.1851 21.5267 17.6451 21.72C17.1051 21.9133 16.5851 22.01 16.0851 22.01C15.3651 22.01 14.7051 21.86 14.1051 21.56C13.5184 21.2467 13.0584 20.8067 12.7251 20.24C12.4051 19.66 12.2451 19 12.2451 18.26V14.14C12.2451 13.4 12.4117 12.7467 12.7451 12.18C13.0917 11.6 13.5584 11.1533 14.1451 10.84C14.7317 10.5267 15.3784 10.37 16.0851 10.37C16.7917 10.37 17.4384 10.5267 18.0251 10.84C18.6251 11.1533 19.0984 11.6 19.4451 12.18C19.7917 12.7467 19.9651 13.4 19.9651 14.14V18.26C19.9651 18.3267 19.9584 18.3933 19.9451 18.46C19.9317 18.5267 19.9184 18.5933 19.9051 18.66L21.4051 20.16V22.01L18.7851 19.36C18.5117 19.88 18.1117 20.24 17.5851 20.44C17.0584 20.6267 16.5651 20.7133 16.0851 20.7V20.8ZM16.0851 19.3C16.5384 19.3 16.9384 19.1867 17.2851 18.96C17.6317 18.7333 17.9051 18.4267 18.1051 18.04C18.3051 17.6533 18.4051 17.2133 18.4051 16.72V15.68C18.4051 15.1867 18.3051 14.7467 18.1051 14.36C17.9051 13.9733 17.6317 13.6667 17.2851 13.44C16.9384 13.2133 16.5384 13.1 16.0851 13.1C15.6317 13.1 15.2317 13.2133 14.8851 13.44C14.5384 13.6667 14.2651 13.9733 14.0651 14.36C13.8651 14.7467 13.7651 15.1867 13.7651 15.68V16.72C13.7651 17.2133 13.8651 17.6533 14.0651 18.04C14.2651 18.4267 14.5384 18.7333 14.8851 18.96C15.2317 19.1867 15.6317 19.3 16.0851 19.3Z" fill="white"/>
  <defs>
    <linearGradient id="paint0_linear" x1="0" y1="0" x2="32" y2="32" gradientUnits="userSpaceOnUse">
      <stop stop-color="#F97316"/>
      <stop offset="0.5" stop-color="#EF4444"/>
      <stop offset="1" stop-color="#F59E0B"/>
    </linearGradient>
  </defs>
</svg> 